<?xml version="1.0" encoding="UTF-8" standalone="no"?>
<!-- Created with Inkscape (http://www.inkscape.org/) -->

<svg
   xmlns:dc="http://purl.org/dc/elements/1.1/"
   xmlns:cc="http://creativecommons.org/ns#"
   xmlns:rdf="http://www.w3.org/1999/02/22-rdf-syntax-ns#"
   xmlns:svg="http://www.w3.org/2000/svg"
   xmlns="http://www.w3.org/2000/svg"
   xmlns:sodipodi="http://sodipodi.sourceforge.net/DTD/sodipodi-0.dtd"
   xmlns:inkscape="http://www.inkscape.org/namespaces/inkscape"
   version="1.1"
   width="300"
   height="110"
   id="svg3001"
   inkscape:version="0.48.5 r10040"
   sodipodi:docname="vector logo white.svg">
  <sodipodi:namedview
     pagecolor="#ffffff"
     bordercolor="#666666"
     borderopacity="1"
     objecttolerance="10"
     gridtolerance="10"
     guidetolerance="10"
     inkscape:pageopacity="0"
     inkscape:pageshadow="2"
     inkscape:window-width="908"
     inkscape:window-height="579"
     id="namedview3017"
     showgrid="false"
     inkscape:zoom="5.7591201"
     inkscape:cx="266.82339"
     inkscape:cy="43.738402"
     inkscape:window-x="60"
     inkscape:window-y="40"
     inkscape:window-maximized="0"
     inkscape:current-layer="svg3001"
     fit-margin-bottom="-0.3"
     width="300px" />
  <defs
     id="defs3003" />
  <metadata
     id="metadata3007">
    <rdf:RDF>
      <cc:Work
         rdf:about="">
        <dc:format>image/svg+xml</dc:format>
        <dc:type
           rdf:resource="http://purl.org/dc/dcmitype/StillImage" />
        <dc:title />
      </cc:Work>
    </rdf:RDF>
  </metadata>
  <g
     transform="matrix(0.33484611,0,0,0.31430823,-0.5139724,-122.23682)"
     id="layer1"
     style="fill:#ffffff">
    <g
       style="font-size:160px;font-style:normal;font-variant:normal;font-weight:normal;font-stretch:normal;line-height:125%;letter-spacing:0px;word-spacing:0px;fill:#ffffff;fill-opacity:1;stroke:none;font-family:Droid Sans;-inkscape-font-specification:Droid Sans"
       id="text3010" />
    <g
       style="font-size:150px;font-style:normal;font-variant:normal;font-weight:bold;font-stretch:normal;line-height:125%;letter-spacing:0px;word-spacing:0px;fill:#ffffff;fill-opacity:1;stroke:none;font-family:Droid Sans;-inkscape-font-specification:Droid Sans Bold"
       id="text3026">
      <path
         inkscape:connector-curvature="0"
         d="m 424.4624,703.54486 -61.66992,0 0,-107.08008 61.66992,0 0,18.60352 -38.96484,0 0,23.51074 36.25488,0 0,18.60352 -36.25488,0 0,27.6123 38.96484,0 z"
         style="fill:#ffffff"
         id="path3021" />
      <path
         inkscape:connector-curvature="0"
         d="m 461.88916,661.72357 -26.36719,-40.06347 25.3418,0 13.62305,24.60937 13.84277,-24.60937 25.3418,0 -26.7334,40.06347 27.90527,41.82129 -25.3418,0 -15.01464,-26.51367 -15.01465,26.51367 -25.3418,0 z"
         style="fill:#ffffff"
         id="path3023" />
      <path
         inkscape:connector-curvature="0"
         d="m 570.50732,705.0097 c -2.68559,0 -5.09038,-0.29297 -7.21435,-0.8789 -2.12407,-0.58594 -4.01616,-1.36719 -5.67627,-2.34375 -1.6602,-0.97656 -3.12504,-2.0874 -4.39453,-3.33252 -1.26957,-1.24511 -2.41703,-2.55126 -3.44238,-3.91846 l -1.17188,0 c 0.19528,1.70899 0.39059,3.32032 0.58594,4.83399 0.14645,1.26953 0.28073,2.57568 0.40283,3.91845 0.12204,1.34278 0.18307,2.38037 0.18311,3.1128 l 0,33.17871 -22.33887,0 0,-117.91992 18.16406,0 3.14941,10.62011 1.0254,0 c 1.02535,-1.66008 2.19722,-3.22258 3.51562,-4.6875 1.31832,-1.46476 2.8442,-2.7465 4.57764,-3.84521 1.73335,-1.09855 3.69868,-1.97746 5.89599,-2.63672 2.19722,-0.6591 4.63862,-0.98869 7.32422,-0.98877 4.24799,8e-5 8.10541,0.9034 11.57227,2.70996 3.46672,1.80672 6.44524,4.49226 8.93554,8.05664 2.49016,3.56452 4.41887,7.98346 5.78614,13.25684 1.3671,5.27349 2.05069,11.377 2.05078,18.31054 -9e-5,6.98246 -0.70809,13.12259 -2.12403,18.42041 -1.41609,5.29787 -3.40584,9.74123 -5.96923,13.33008 -2.56355,3.58887 -5.61531,6.28663 -9.15528,8.09326 -3.5401,1.80664 -7.43414,2.70996 -11.68213,2.70996 z m -6.958,-67.0166 c -2.49028,7e-5 -4.6021,0.45173 -6.33545,1.35498 -1.73344,0.90339 -3.13725,2.25837 -4.21143,4.06494 -1.07425,1.8067 -1.8555,4.08942 -2.34375,6.84815 -0.48831,2.75884 -0.78128,5.96929 -0.8789,9.63135 l 0,2.41699 c -4e-5,3.95511 0.23189,7.47074 0.6958,10.54687 0.46383,3.0762 1.23287,5.65188 2.30712,7.72706 1.07419,2.07521 2.50241,3.64992 4.28467,4.72412 1.78219,1.07423 3.99166,1.61134 6.62842,1.61132 4.44331,2e-5 7.70258,-2.11179 9.77783,-6.33544 2.07514,-4.22361 3.11273,-10.36374 3.1128,-18.42042 -7e-5,-8.05659 -1.03766,-14.09906 -3.1128,-18.12744 -2.07525,-4.02825 -5.38335,-6.04241 -9.92431,-6.04248 z"
         style="fill:#ffffff"
         id="path3025" />
      <path
         inkscape:connector-curvature="0"
         d="m 661.25439,620.12201 c 0.58589,8e-5 1.23286,0.0123 1.94092,0.0366 0.70795,0.0245 1.39155,0.0733 2.05078,0.14648 0.65912,0.0733 1.26948,0.14657 1.83106,0.21973 0.56146,0.0733 0.98871,0.15878 1.28174,0.25635 l 0,20.94726 c -0.39069,-0.0976 -0.9278,-0.19525 -1.61133,-0.29296 -0.68365,-0.0976 -1.40387,-0.18305 -2.16065,-0.25635 -0.75689,-0.0732 -1.50152,-0.12201 -2.23388,-0.14649 -0.73248,-0.0244 -1.34283,-0.0366 -1.83106,-0.0366 -2.88091,7e-5 -5.52983,0.36628 -7.94677,1.09864 -2.41704,0.73248 -4.49223,1.91656 -6.22559,3.55224 -1.73344,1.6358 -3.07621,3.78424 -4.02832,6.44531 -0.95218,2.66119 -1.42826,5.92046 -1.42822,9.77784 l 0,41.6748 -22.33887,0 0,-81.88476 16.91894,0 3.2959,12.30468 1.09864,0 c 1.17184,-2.09953 2.44137,-4.00383 3.80859,-5.71289 1.36715,-1.70891 2.89303,-3.16154 4.57764,-4.35791 1.68452,-1.19621 3.58882,-2.12394 5.71289,-2.7832 2.12397,-0.6591 4.55317,-0.98869 7.28759,-0.98877 z"
         style="fill:#ffffff"
         id="path3027" />
      <path
         inkscape:connector-curvature="0"
         d="m 716.69873,636.01556 c -3.95512,7e-5 -7.23881,1.39167 -9.85107,4.17481 -2.61234,2.78326 -4.1138,7.15338 -4.5044,13.11035 l 28.49121,0 c -0.0489,-2.49018 -0.36627,-4.7851 -0.95215,-6.88477 -0.58599,-2.09955 -1.4649,-3.91839 -2.63671,-5.45654 -1.17193,-1.53802 -2.63678,-2.74652 -4.39454,-3.62549 -1.75786,-0.87884 -3.80864,-1.31829 -6.15234,-1.31836 z m 2.85645,68.99414 c -5.85942,0 -11.25492,-0.85449 -16.18653,-2.56347 -4.93166,-1.70898 -9.17971,-4.28466 -12.74414,-7.72705 -3.56447,-3.44237 -6.33546,-7.78807 -8.31299,-13.03711 -1.97754,-5.249 -2.96631,-11.41354 -2.96631,-18.49365 0,-7.17769 0.90332,-13.4521 2.70997,-18.82325 1.80662,-5.37103 4.33348,-9.851 7.58056,-13.43994 3.24705,-3.58879 7.1533,-6.28654 11.71875,-8.09326 4.5654,-1.80656 9.63131,-2.70988 15.19776,-2.70996 5.41987,8e-5 10.31488,0.81795 14.68505,2.45361 4.37006,1.63582 8.08099,4.04061 11.13282,7.21436 3.05168,3.1739 5.39543,7.06794 7.03125,11.68213 1.63566,4.61431 2.45353,9.89995 2.45361,15.85693 l 0,10.83984 -49.95117,0 c 0.0976,3.12504 0.59811,5.94486 1.50146,8.45948 0.90329,2.51467 2.17282,4.63869 3.8086,6.37207 1.6357,1.73341 3.61324,3.06398 5.93261,3.9917 2.3193,0.92775 4.96822,1.39161 7.94678,1.3916 2.49018,10e-6 4.84614,-0.13426 7.06787,-0.40283 2.22162,-0.26854 4.38227,-0.67137 6.48194,-1.2085 2.09954,-0.53709 4.17473,-1.20848 6.22558,-2.01416 2.05071,-0.80564 4.15032,-1.74559 6.29883,-2.81982 l 0,17.28515 c -1.9532,1.0254 -3.91853,1.89209 -5.896,2.6001 -1.9776,0.70801 -4.065,1.30615 -6.2622,1.79443 -2.19733,0.48828 -4.56549,0.84229 -7.10449,1.06201 -2.53912,0.21973 -5.32232,0.32959 -8.34961,0.32959 z"
         style="fill:#ffffff"
         id="path3029" />
      <path
         inkscape:connector-curvature="0"
         d="m 825.46338,679.22845 c -7e-5,4.2969 -0.78132,8.05666 -2.34375,11.2793 -1.56256,3.22267 -3.78424,5.90821 -6.66504,8.05664 -2.88091,2.14844 -6.37212,3.75977 -10.47363,4.83399 -4.10161,1.07421 -8.69145,1.61132 -13.76953,1.61132 -2.68558,0 -5.17581,-0.0854 -7.47071,-0.25634 -2.29494,-0.1709 -4.46779,-0.45166 -6.51855,-0.84229 -2.0508,-0.39062 -4.02834,-0.8789 -5.93262,-1.46484 -1.90431,-0.58594 -3.83302,-1.31836 -5.78613,-2.19727 l 0,-18.45703 c 2.05077,1.02541 4.21141,1.95315 6.48193,2.7832 2.27049,0.8301 4.52879,1.55031 6.7749,2.16065 2.24607,0.61037 4.43113,1.08644 6.55518,1.42822 2.12399,0.34181 4.08932,0.51271 5.896,0.5127 2.00191,10e-6 3.7109,-0.18309 5.12695,-0.54932 1.41597,-0.36619 2.57564,-0.87889 3.479,-1.53809 0.90328,-0.65916 1.56246,-1.44041 1.97754,-2.34375 0.415,-0.9033 0.62252,-1.86765 0.62256,-2.89306 -4e-5,-1.02537 -0.15874,-1.9409 -0.47607,-2.74658 -0.31743,-0.80564 -1.03764,-1.66013 -2.16065,-2.56348 -1.12309,-0.90329 -2.77103,-1.92868 -4.94385,-3.07617 -2.17288,-1.14743 -5.09036,-2.55124 -8.75244,-4.21143 -3.56447,-1.61129 -6.65285,-3.21041 -9.26513,-4.79736 -2.61232,-1.58687 -4.76076,-3.35689 -6.44532,-5.31006 -1.68458,-1.95308 -2.9419,-4.18696 -3.77197,-6.70166 -0.83008,-2.51459 -1.24512,-5.50531 -1.24512,-8.97217 0,-3.80853 0.73242,-7.14104 2.19727,-9.99756 1.46483,-2.85637 3.54003,-5.23674 6.22559,-7.14111 2.68552,-1.90422 5.92038,-3.33244 9.70458,-4.28467 3.78416,-0.95206 7.99558,-1.42814 12.63428,-1.42822 4.88277,8e-5 9.52144,0.56161 13.91602,1.68457 4.39447,1.12313 8.91107,2.8077 13.5498,5.05371 l -6.73828,15.82031 c -3.71099,-1.75775 -7.25103,-3.19818 -10.62012,-4.32129 -3.36918,-1.12298 -6.73832,-1.6845 -10.10742,-1.68457 -3.02738,7e-5 -5.21243,0.53718 -6.55517,1.61133 -1.34281,1.07428 -2.01419,2.53913 -2.01416,4.39453 -3e-5,0.97663 0.17087,1.84332 0.51269,2.6001 0.34177,0.75689 1.02536,1.53814 2.05078,2.34375 1.02536,0.80572 2.46579,1.68463 4.32129,2.63672 1.85543,0.9522 4.27242,2.11187 7.25098,3.479 3.46675,1.51372 6.59175,3.01519 9.375,4.5044 2.78315,1.4893 5.17572,3.18608 7.17773,5.09033 2.00189,1.90434 3.53998,4.12601 4.61426,6.66504 1.07415,2.53909 1.61126,5.61526 1.61133,9.22851 z"
         style="fill:#ffffff"
         id="path3031" />
      <path
         inkscape:connector-curvature="0"
         d="m 897.53369,679.22845 c -6e-5,4.2969 -0.78131,8.05666 -2.34375,11.2793 -1.56256,3.22267 -3.78424,5.90821 -6.66504,8.05664 -2.88091,2.14844 -6.37212,3.75977 -10.47363,4.83399 -4.10161,1.07421 -8.69144,1.61132 -13.76953,1.61132 -2.68558,0 -5.17581,-0.0854 -7.4707,-0.25634 -2.29495,-0.1709 -4.4678,-0.45166 -6.51856,-0.84229 -2.0508,-0.39062 -4.02833,-0.8789 -5.93262,-1.46484 -1.9043,-0.58594 -3.83301,-1.31836 -5.78613,-2.19727 l 0,-18.45703 c 2.05077,1.02541 4.21141,1.95315 6.48193,2.7832 2.2705,0.8301 4.52879,1.55031 6.77491,2.16065 2.24607,0.61037 4.43112,1.08644 6.55517,1.42822 2.124,0.34181 4.08933,0.51271 5.896,0.5127 2.00192,10e-6 3.7109,-0.18309 5.12695,-0.54932 1.41598,-0.36619 2.57564,-0.87889 3.47901,-1.53809 0.90327,-0.65916 1.56245,-1.44041 1.97753,-2.34375 0.415,-0.9033 0.62252,-1.86765 0.62256,-2.89306 -4e-5,-1.02537 -0.15873,-1.9409 -0.47607,-2.74658 -0.31743,-0.80564 -1.03764,-1.66013 -2.16065,-2.56348 -1.12308,-0.90329 -2.77103,-1.92868 -4.94384,-3.07617 -2.17289,-1.14743 -5.09037,-2.55124 -8.75244,-4.21143 -3.56448,-1.61129 -6.65286,-3.21041 -9.26514,-4.79736 -2.61232,-1.58687 -4.76076,-3.35689 -6.44531,-5.31006 -1.68458,-1.95308 -2.94191,-4.18696 -3.77198,-6.70166 -0.83008,-2.51459 -1.24512,-5.50531 -1.24511,-8.97217 -10e-6,-3.80853 0.73241,-7.14104 2.19726,-9.99756 1.46483,-2.85637 3.54003,-5.23674 6.22559,-7.14111 2.68553,-1.90422 5.92039,-3.33244 9.70459,-4.28467 3.78415,-0.95206 7.99557,-1.42814 12.63427,-1.42822 4.88277,8e-5 9.52144,0.56161 13.91602,1.68457 4.39448,1.12313 8.91107,2.8077 13.54981,5.05371 l -6.73829,15.82031 c -3.71099,-1.75775 -7.25102,-3.19818 -10.62011,-4.32129 -3.36919,-1.12298 -6.73833,-1.6845 -10.10743,-1.68457 -3.02737,7e-5 -5.21243,0.53718 -6.55517,1.61133 -1.3428,1.07428 -2.01419,2.53913 -2.01416,4.39453 -3e-5,0.97663 0.17087,1.84332 0.51269,2.6001 0.34177,0.75689 1.02536,1.53814 2.05079,2.34375 1.02535,0.80572 2.46578,1.68463 4.32128,2.63672 1.85544,0.9522 4.27242,2.11187 7.25098,3.479 3.46675,1.51372 6.59175,3.01519 9.375,4.5044 2.78315,1.4893 5.17572,3.18608 7.17774,5.09033 2.00189,1.90434 3.53997,4.12601 4.61425,6.66504 1.07416,2.53909 1.61127,5.61526 1.61133,9.22851 z"
         style="fill:#ffffff"
         id="path3033" />
    </g>
    <g
       style="font-size:150px;font-style:normal;font-variant:normal;font-weight:bold;font-stretch:normal;line-height:125%;letter-spacing:0px;word-spacing:0px;fill:#ffffff;fill-opacity:1;stroke:none;font-family:Droid Sans;-inkscape-font-specification:Sans Bold"
       id="text3050">
      <path
         inkscape:connector-curvature="0"
         d="m 222.78773,584.86304 -4.32128,-11.13282 -0.65918,0 c -1.61138,2.19728 -3.22271,4.08937 -4.83399,5.67627 -1.61137,1.58692 -3.36918,2.89307 -5.27344,3.91846 -1.90433,1.02539 -4.04056,1.78223 -6.40869,2.27051 -2.3682,0.48828 -5.11478,0.73242 -8.23974,0.73242 -3.32034,0 -6.39651,-0.5249 -9.22852,-1.57471 -2.83205,-1.0498 -5.28566,-2.63671 -7.36084,-4.76074 -2.0752,-2.12401 -3.69874,-4.80956 -4.8706,-8.05664 -1.17189,-3.24705 -1.75782,-7.09226 -1.75782,-11.53564 0,-8.69138 2.7832,-15.10006 8.34961,-19.22608 5.56639,-4.12593 13.89158,-6.40864 24.97559,-6.84814 l 13.03711,-0.43946 0,-6.15234 c -5e-5,-3.36908 -0.97662,-5.85931 -2.92969,-7.4707 -1.95317,-1.61126 -4.68754,-2.41693 -8.20312,-2.41699 -3.51567,6e-5 -6.94584,0.51276 -10.29053,1.53808 -3.34476,1.02546 -6.70169,2.39264 -10.0708,4.10156 l -7.25098,-14.79492 c 4.10155,-2.29484 8.64256,-4.10148 13.62305,-5.41992 4.98043,-1.31828 10.20504,-1.97746 15.67383,-1.97754 10.20502,8e-5 18.02972,2.39266 23.47412,7.17774 5.44426,4.78522 8.16643,12.06061 8.1665,21.82617 l 0,54.56543 z m -6.59179,-37.93946 -7.39746,0.29297 c -2.97856,0.0977 -5.49321,0.48832 -7.54395,1.17188 -2.05082,0.68363 -3.69876,1.59915 -4.94385,2.74658 -1.24514,1.14749 -2.14846,2.51468 -2.70996,4.10156 -0.56155,1.58694 -0.84231,3.35696 -0.84228,5.31006 -3e-5,3.41799 0.83005,5.84719 2.49023,7.2876 1.66013,1.44044 3.83297,2.16066 6.51856,2.16064 2.05074,2e-5 3.95503,-0.35399 5.71289,-1.06201 1.75776,-0.70799 3.28364,-1.75779 4.57763,-3.14941 1.2939,-1.39158 2.30708,-3.10057 3.03956,-5.12696 0.73236,-2.02634 1.09858,-4.35788 1.09863,-6.99462 z"
         style="fill:#ffffff"
         id="path3036" />
      <path
         inkscape:connector-curvature="0"
         d="m 332.43129,584.86304 -22.33887,0 0,-47.82715 c -6e-5,-5.90815 -0.89117,-10.3393 -2.67334,-13.29346 -1.78228,-2.95404 -4.62652,-4.43109 -8.53271,-4.43115 -2.92974,6e-5 -5.37114,0.586 -7.32422,1.75781 -1.95317,1.17194 -3.50346,2.90534 -4.65088,5.2002 -1.1475,2.29498 -1.96537,5.127 -2.45361,8.49609 -0.48832,3.36919 -0.73246,7.22661 -0.73243,11.57227 l 0,38.52539 -22.33886,0 0,-81.88477 17.06543,0 3.00293,10.47363 1.24511,0 c 1.17185,-2.09953 2.60007,-3.90617 4.28467,-5.41992 1.68453,-1.51359 3.52779,-2.75871 5.52979,-3.73535 2.00191,-0.97648 4.12593,-1.69669 6.37207,-2.16064 2.24604,-0.46379 4.54096,-0.69572 6.88476,-0.6958 4.00385,8e-5 7.64154,0.57381 10.91309,1.72119 3.27141,1.14754 6.07903,2.94197 8.42285,5.3833 2.34367,2.44148 4.15031,5.55427 5.41992,9.33838 1.26945,3.78424 1.90422,8.31304 1.9043,13.58642 z"
         style="fill:#ffffff"
         id="path3038" />
      <path
         inkscape:connector-curvature="0"
         d="m 379.52602,586.32788 c -4.19925,0 -8.03226,-0.90332 -11.49903,-2.70996 -3.46681,-1.80664 -6.44533,-4.47997 -8.93554,-8.02002 -2.49025,-3.54003 -4.43117,-7.94676 -5.82276,-13.22021 -1.39161,-5.27341 -2.08741,-11.37692 -2.0874,-18.31055 -10e-6,-7.0312 0.69579,-13.19575 2.0874,-18.49365 1.39159,-5.29779 3.36913,-9.74115 5.93262,-13.33008 2.56346,-3.58879 5.62742,-6.28654 9.19189,-8.09326 3.56443,-1.80656 7.49509,-2.70988 11.792,-2.70996 2.63668,8e-5 5.05367,0.30525 7.25097,0.91552 2.19722,0.61044 4.17476,1.46493 5.93262,2.56348 1.75776,1.09871 3.33247,2.36824 4.72412,3.80859 1.39155,1.44051 2.62446,3.01521 3.69873,4.72412 l 0.73242,0 c -0.29302,-1.90422 -0.56158,-3.83293 -0.80566,-5.78613 -0.2442,-1.66008 -0.45172,-3.43009 -0.62256,-5.31006 -0.17096,-1.8798 -0.2564,-3.6254 -0.25635,-5.23681 l 0,-26.22071 22.33887,0 0,113.96485 -17.06543,0 -4.32129,-10.62012 -0.95215,0 c -1.02544,1.66017 -2.19732,3.23487 -3.51562,4.72412 -1.31841,1.48926 -2.84429,2.771 -4.57764,3.84522 -1.73344,1.07422 -3.68657,1.92871 -5.85937,2.56347 -2.1729,0.63477 -4.62651,0.95215 -7.36084,0.95215 z m 8.12988,-17.79785 c 2.63667,2e-5 4.88276,-0.45164 6.73828,-1.35498 1.85542,-0.9033 3.35688,-2.27049 4.50439,-4.10156 1.14741,-1.83103 2.0019,-4.11375 2.56348,-6.84815 0.56147,-2.73434 0.86664,-5.93258 0.91553,-9.59472 l 0,-2.417 c -6e-5,-3.95503 -0.2442,-7.47065 -0.73242,-10.54687 -0.48834,-3.07612 -1.29401,-5.6518 -2.417,-7.72705 -1.1231,-2.07514 -2.63677,-3.64984 -4.54101,-4.72412 -1.90435,-1.07416 -4.29692,-1.61127 -7.17774,-1.61133 -4.68753,6e-5 -8.12991,2.11188 -10.32714,6.33545 -2.1973,4.22368 -3.29593,10.36382 -3.2959,18.42041 -3e-5,8.05667 1.11081,14.09914 3.33252,18.12744 2.22164,4.02834 5.70064,6.0425 10.43701,6.04248 z"
         style="fill:#ffffff"
         id="path3040" />
      <path
         inkscape:connector-curvature="0"
         d="m 509.09145,584.86304 -6.29883,-28.6377 c -0.19538,-0.83005 -0.45173,-2.01413 -0.76905,-3.55224 -0.31744,-1.53806 -0.67145,-3.27145 -1.06201,-5.2002 -0.39069,-1.92867 -0.79352,-3.97945 -1.20849,-6.15234 -0.41511,-2.17281 -0.84235,-4.33345 -1.28174,-6.48194 -0.97663,-5.02924 -2.05084,-10.44916 -3.22266,-16.25976 l -0.43945,0 c -1.12311,5.8106 -2.1485,11.25494 -3.07617,16.33301 -0.39068,2.14848 -0.79352,4.32133 -1.2085,6.51855 -0.41509,2.19731 -0.81792,4.26029 -1.20849,6.18896 -0.39068,1.92875 -0.74469,3.67435 -1.06202,5.23682 -0.31743,1.56253 -0.57378,2.78323 -0.76904,3.66211 l -6.5918,28.34473 -24.02343,0 -22.0459,-81.88477 22.19238,0 8.27637,36.25488 c 0.43942,1.90434 0.89108,4.18706 1.35498,6.84815 0.46383,2.66117 0.90329,5.34671 1.31836,8.05664 0.415,2.70999 0.79342,5.27346 1.13525,7.69043 0.34176,2.41701 0.61032,4.33351 0.80567,5.74951 l 0.43945,0 c 0.0488,-0.92772 0.15865,-2.13621 0.32959,-3.62549 0.17086,-1.48923 0.37838,-3.08835 0.62256,-4.79736 0.2441,-1.70896 0.50045,-3.45456 0.76904,-5.23682 0.26852,-1.78219 0.53707,-3.45455 0.80566,-5.01709 0.26852,-1.56246 0.51266,-2.94185 0.73243,-4.13818 0.21968,-1.19625 0.40279,-2.03853 0.54931,-2.52686 l 8.93555,-39.25781 24.60937,0 8.56934,39.25781 c 0.24406,1.07426 0.56144,2.73442 0.95215,4.98047 0.39054,2.24613 0.79337,4.65091 1.20849,7.21436 0.41496,2.5635 0.76896,5.05373 1.06202,7.4707 0.29288,2.41701 0.46378,4.3091 0.51269,5.67627 l 0.43945,0 c 0.1464,-1.22068 0.40275,-3.02732 0.76905,-5.41992 0.36612,-2.39255 0.76895,-4.96824 1.20849,-7.72705 0.43937,-2.75876 0.91544,-5.50534 1.42823,-8.23975 0.5126,-2.73433 0.98868,-5.05367 1.42822,-6.95801 l 8.56934,-36.25488 21.89941,0 -22.33887,81.88477 z"
         style="fill:#ffffff"
         id="path3042" />
      <path
         inkscape:connector-curvature="0"
         d="m 566.58656,481.81128 c -10e-6,-2.0995 0.31737,-3.84511 0.95215,-5.23682 0.63475,-1.39149 1.50145,-2.51453 2.6001,-3.36914 1.09862,-0.85438 2.39256,-1.45252 3.88184,-1.79443 1.48923,-0.34168 3.06394,-0.51258 4.72412,-0.5127 1.66013,1.2e-4 3.22263,0.17102 4.6875,0.5127 1.46481,0.34191 2.74655,0.94005 3.84521,1.79443 1.0986,0.85461 1.97751,1.97765 2.63672,3.36914 0.65914,1.39171 0.98873,3.13732 0.98877,5.23682 -4e-5,2.05088 -0.32963,3.78428 -0.98877,5.20019 -0.65921,1.41612 -1.53812,2.55137 -2.63672,3.40577 -1.09866,0.85458 -2.3804,1.46493 -3.84521,1.83105 -1.46487,0.3663 -3.02737,0.54941 -4.6875,0.54932 -1.66018,9e-5 -3.23489,-0.18302 -4.72412,-0.54932 -1.48928,-0.36612 -2.78322,-0.97647 -3.88184,-1.83105 -1.09865,-0.8544 -1.96535,-1.98965 -2.6001,-3.40577 -0.63478,-1.41591 -0.95216,-3.14931 -0.95215,-5.20019 z m 23.29102,103.05176 -22.33887,0 0,-81.88477 22.33887,0 z"
         style="fill:#ffffff"
         id="path3044" />
      <path
         inkscape:connector-curvature="0"
         d="m 647.29945,586.32788 c -5.85941,0 -11.14505,-0.80566 -15.85693,-2.41699 -4.71194,-1.61133 -8.74026,-4.11377 -12.08496,-7.50733 -3.34474,-3.39354 -5.90822,-7.73924 -7.69043,-13.0371 -1.78224,-5.29783 -2.67335,-11.63327 -2.67334,-19.00635 -10e-6,-8.15425 0.91552,-14.97797 2.74658,-20.47119 1.83104,-5.4931 4.41893,-9.89984 7.76367,-13.22022 3.34471,-3.32023 7.37303,-5.6884 12.08496,-7.10449 4.71188,-1.41593 9.94869,-2.12394 15.71045,-2.12402 4.19917,8e-5 8.37397,0.51277 12.52442,1.53808 4.15033,1.02547 8.05657,2.4659 11.71875,4.32129 l -6.44531,16.99219 c -3.22272,-1.41596 -6.3233,-2.57562 -9.30176,-3.47901 -2.97857,-0.90325 -5.8106,-1.35491 -8.4961,-1.35498 -5.41996,7e-5 -9.35062,2.06306 -11.79199,6.18897 -2.44144,4.12603 -3.66214,10.31499 -3.66211,18.56689 -3e-5,8.20316 1.22067,14.25784 3.66211,18.16407 2.44137,3.90626 6.27438,5.85939 11.49902,5.85937 4.248,2e-5 8.10542,-0.5493 11.57227,-1.64795 3.46674,-1.09861 7.00677,-2.50242 10.62012,-4.21142 l 0,18.60351 c -1.80671,0.87891 -3.56452,1.66016 -5.27344,2.34375 -1.70904,0.6836 -3.43023,1.24512 -5.16357,1.68457 -1.73346,0.43945 -3.5401,0.76904 -5.41993,0.98877 -1.87993,0.21973 -3.89409,0.32959 -6.04248,0.32959 z"
         style="fill:#ffffff"
         id="path3046" />
      <path
         inkscape:connector-curvature="0"
         d="m 759.28676,584.86304 -22.33887,0 0,-47.82715 c -6e-5,-5.90815 -0.91559,-10.3393 -2.74658,-13.29346 -1.83111,-2.95404 -4.65093,-4.43109 -8.45947,-4.43115 -2.88091,6e-5 -5.2979,0.586 -7.25098,1.75781 -1.95317,1.17194 -3.51566,2.90534 -4.6875,5.2002 -1.17191,2.29498 -2.00199,5.127 -2.49023,8.49609 -0.48832,3.36919 -0.73246,7.22661 -0.73243,11.57227 l 0,38.52539 -22.33886,0 0,-113.96485 22.33886,0 0,23.21778 c -3e-5,2.05087 -0.0489,4.21151 -0.14648,6.48193 -0.0977,2.27059 -0.21976,4.35799 -0.36621,6.26221 -0.19535,2.24617 -0.36625,4.44343 -0.5127,6.59179 l 1.17188,0 c 2.39254,-4.24797 5.44429,-7.31193 9.15527,-9.19189 3.71089,-1.8798 7.91011,-2.81974 12.59766,-2.81982 4.05267,8e-5 7.72698,0.57381 11.02295,1.72119 3.29583,1.14754 6.11565,2.94197 8.45947,5.3833 2.34367,2.44148 4.15031,5.55427 5.41992,9.33838 1.26945,3.78424 1.90422,8.31304 1.9043,13.58642 z"
         style="fill:#ffffff"
         id="path3048" />
    </g>
    <g
       transform="scale(1.0717351,0.93306639)"
       style="font-size:268.39691162000003000px;font-style:normal;font-variant:normal;font-weight:bold;font-stretch:normal;line-height:125%;letter-spacing:0px;word-spacing:0px;fill:#ffffff;fill-opacity:1;stroke:none;font-family:Droid Sans;-inkscape-font-specification:Sans Bold"
       id="text3054">
      <path
         inkscape:connector-curvature="0"
         d="m 155.4294,575.028 c -1.3e-4,8.56219 -1.46355,16.27248 -4.39028,23.13089 -2.92698,6.85847 -7.20804,12.71218 -12.84321,17.56113 -5.63539,4.84897 -12.53752,8.58398 -20.7064,11.20504 -8.16907,2.62107 -17.539361,3.9316 -28.110911,3.9316 -9.261145,0 -18.194594,-0.96106 -26.800375,-2.88317 -8.605853,-1.92211 -16.578247,-4.80528 -23.917205,-8.64951 l 0,-37.74332 c 4.193685,2.00953 8.431067,3.95348 12.712158,5.83187 4.281042,1.87847 8.627634,3.56032 13.039792,5.04555 4.412081,1.4853 8.8242,2.66478 13.236371,3.53843 4.412068,0.87372 8.802345,1.31057 13.170844,1.31054 4.45574,3e-5 8.27812,-0.50234 11.467156,-1.50712 3.18888,-1.0047 5.76626,-2.4026 7.73214,-4.1937 1.96571,-1.79102 3.40729,-3.93155 4.32475,-6.4216 0.91728,-2.48997 1.37597,-5.22024 1.37606,-8.19083 -9e-5,-3.58206 -0.76457,-6.74918 -2.29343,-9.50135 -1.52904,-2.75206 -3.66957,-5.32943 -6.42161,-7.73214 -2.75219,-2.40257 -6.0722,-4.73968 -9.96004,-7.01135 -3.887977,-2.27151 -8.23457,-4.67415 -13.039791,-7.20792 -4.019018,-2.09677 -8.518506,-4.63046 -13.498477,-7.60108 -4.98006,-2.97045 -9.676128,-6.66178 -14.088217,-11.074 -4.41215,-4.41202 -8.103477,-9.74151 -11.073994,-15.98849 -2.970555,-6.24674 -4.455823,-13.73861 -4.455808,-22.47562 -1.5e-5,-8.56199 1.419727,-16.22859 4.259228,-22.99983 2.839464,-6.77091 6.880267,-12.49356 12.122419,-17.16797 5.242091,-4.67404 11.598164,-8.23432 19.068238,-10.68083 7.469974,-2.44613 15.835527,-3.6693 25.096682,-3.66949 4.63047,1.9e-4 9.1518,0.30599 13.56401,0.91737 4.41203,0.61178 8.78046,1.48546 13.10531,2.62107 4.32465,1.13598 8.67125,2.53388 13.0398,4.1937 4.36832,1.66019 8.8678,3.5823 13.49847,5.76634 l -13.10532,31.58381 c -3.9317,-1.83459 -7.60119,-3.45091 -11.00846,-4.84896 -3.40749,-1.39775 -6.7275,-2.57723 -9.96004,-3.53844 -3.23274,-0.9609 -6.39986,-1.68169 -9.50136,-2.16238 -3.10167,-0.48036 -6.2251,-0.72063 -9.3703,-0.72079 -6.814836,1.6e-4 -12.035115,1.81306 -15.660857,5.43871 -3.62586,3.62595 -5.438761,8.45307 -5.438707,14.48137 -5.4e-5,3.23279 0.546,6.09411 1.638165,8.58399 1.092053,2.49014 2.839427,4.82725 5.242127,7.01134 2.402578,2.18434 5.504167,4.41225 9.304776,6.68371 3.800466,2.27171 8.409166,4.84909 13.826106,7.73214 6.55257,3.49486 12.58101,7.05514 18.08534,10.68084 5.50413,3.6259 10.24388,7.64486 14.21927,12.05689 3.97516,4.41221 7.05491,9.41406 9.23925,15.00559 2.18409,5.59167 3.2762,12.14432 3.27633,19.65797 z"
         style="fill:#ffffff"
         id="path3051" />
    </g>
  </g>
  <g
     transform="matrix(0.33484611,0,0,0.31430823,-0.5139724,-122.23682)"
     id="layer2"
     style="fill:#ffffff">
    <path
       inkscape:connector-curvature="0"
       d="m 345.49606,147.53796 -34.35397,8.31774 -34.35397,8.31774 9.97361,-33.91028 9.97362,-33.910285 24.38035,25.592545 z"
       transform="matrix(1.3323591,-0.18448031,0.2395776,1.0170891,-295.26765,346.34746)"
       id="path3060"
       style="fill:#ffffff" />
    <path
       inkscape:connector-curvature="0"
       d="m 345.49606,147.53796 -34.35397,8.31774 -34.35397,8.31774 9.97361,-33.91028 9.97362,-33.910285 24.38035,25.592545 z"
       transform="matrix(-1.3442989,0.04554422,-0.13298662,-1.0364277,485.67029,689.09917)"
       id="path3060-4"
       style="fill:#ffffff" />
  </g>
</svg>
